/* XPM */
static char *_a5183964ec84c99f653f5ea03eee7593lvif5Imwwvbs3Le[] = {
/* columns rows colors chars-per-pixel */
"48 48 2 1 ",
"  c None",
". c black",
/* pixels */
"                                                ",
"                                                ",
"                                                ",
"                                                ",
"                                                ",
"                                                ",
"                                                ",
"                                                ",
"    ........................................    ",
"    ........................................    ",
"    ........................................    ",
"    ........................................    ",
"    ........................................    ",
"    ........................................    ",
"    ........................................    ",
"    ........................................    ",
"    ........................................    ",
"    ........................................    ",
"    ........................................    ",
"    ........................................    ",
"    ........................................    ",
"    ........................................    ",
"    ........................................    ",
"    ........................................    ",
"    ........................................    ",
"    ........................................    ",
"    ........................................    ",
"    ........................................    ",
"    ........................................    ",
"    ........................................    ",
"    ........................................    ",
"    ........................................    ",
"    ........................................    ",
"    ........................................    ",
"    ........................................    ",
"    ........................................    ",
"    ........................................    ",
"    ........................................    ",
"    ........................................    ",
"    ........................................    ",
"                                                ",
"                                                ",
"                                                ",
"                                                ",
"                                                ",
"                                                ",
"                                                ",
"                                                "
};
