/* XPM */
static char *_57a2fbbd188479a96ad4be1463f95e4P27dylrIcknAyzE4[] = {
/* columns rows colors chars-per-pixel */
"48 48 158 2 ",
"   c None",
".  c #183E68",
"X  c #1C4575",
"o  c #555555",
"O  c #1F4E80",
"+  c #125597",
"@  c #125799",
"#  c #145A9D",
"$  c #2E5E8F",
"%  c #285D91",
"&  c #1D609F",
"*  c #30699B",
"=  c #0F59A0",
"-  c #085CAE",
";  c #165EA1",
":  c #1761A4",
">  c #1863A6",
",  c #1A65AA",
"<  c #1B69AD",
"1  c #0E67BC",
"2  c #1767B2",
"3  c #1769B7",
"4  c #1D6DB2",
"5  c #166FBE",
"6  c #1C6FBA",
"7  c #1F71B6",
"8  c #1C72BC",
"9  c #246DAB",
"0  c #2073B7",
"q  c #2A71B2",
"w  c #2175BB",
"e  c #2B72BB",
"r  c #2379BF",
"t  c #2F7ABF",
"y  c #327BBD",
"u  c #4378A7",
"i  c #156DC4",
"p  c #156EC9",
"a  c #1470C4",
"s  c #1E74C7",
"d  c #1472CD",
"f  c #0C70D0",
"g  c #0E76DC",
"h  c #1673D3",
"j  c #1876D5",
"k  c #1A7BD6",
"l  c #1476DC",
"z  c #127ADF",
"x  c #2076C7",
"c  c #247CC2",
"v  c #207DCA",
"b  c #337EC5",
"n  c #0F78E2",
"m  c #1379E4",
"M  c #137DEC",
"N  c #137EF0",
"B  c #3981BB",
"V  c #2680C6",
"C  c #2781C9",
"Z  c #2985CD",
"A  c #3282C4",
"S  c #3485CE",
"D  c #2E86D4",
"F  c #2C8AD3",
"G  c #2D8ED9",
"H  c #358ED2",
"J  c #2F91DB",
"K  c #3891D7",
"L  c #3494DD",
"P  c #1A82E9",
"I  c #1681F1",
"U  c #1B85F2",
"Y  c #1F89F3",
"T  c #318AE8",
"R  c #2387F1",
"E  c #238CF4",
"W  c #2B8EF4",
"Q  c #2790F5",
"!  c #2C94F6",
"~  c #3294F5",
"^  c #3997F6",
"/  c #3199F6",
"(  c #3B9AF7",
")  c #349CF9",
"_  c #389EF9",
"`  c #3DA1EC",
"'  c #3EA2F5",
"]  c #3CA3FA",
"[  c #4689C5",
"{  c #4D94CB",
"}  c #539BD6",
"|  c #519EDB",
" . c #55A2DE",
".. c #6EACDD",
"X. c #71A6D4",
"o. c #419CF7",
"O. c #4CA4E4",
"+. c #50A4E3",
"@. c #46A3F7",
"#. c #44A0F8",
"$. c #40A5FB",
"%. c #44A5FB",
"&. c #41A7FC",
"*. c #43A2F9",
"=. c #49A6FA",
"-. c #4DA5F9",
";. c #43A9FC",
":. c #45AAFD",
">. c #46ABFD",
",. c #47ADFE",
"<. c #46ACFD",
"1. c #4DA9FB",
"2. c #4AAFFE",
"3. c #4AAEFD",
"4. c #5AA6F5",
"5. c #5EA9F6",
"6. c #53ACFB",
"7. c #4BB0FE",
"8. c #4DB2FF",
"9. c #4CB1FF",
"0. c #57B6FF",
"q. c #5DB9FF",
"w. c #64ADE4",
"e. c #6EAEE2",
"r. c #61AFE9",
"t. c #6CB4EC",
"y. c #71B7ED",
"u. c #72B9EF",
"i. c #7DBDEF",
"p. c #6CBAF7",
"a. c #65B4FC",
"s. c #6AB4F9",
"d. c #67BAFD",
"f. c #6BBEFF",
"g. c #73BBF2",
"h. c #7ABEF2",
"j. c #6FC0FF",
"k. c #7CC1F6",
"l. c #76C1FA",
"z. c #7AC6FF",
"x. c #7FC7FE",
"c. c #7EC5FB",
"v. c #83C3F5",
"b. c #89C7F6",
"n. c #80C7FE",
"m. c #81C6FC",
"M. c #82C8FE",
"N. c #8AC9FA",
"B. c #94CBF6",
"V. c #9BCBF2",
"C. c #90CCFB",
"Z. c #98CFFB",
"A. c #96D0FE",
"S. c #9ED3FD",
"D. c #A5D5FE",
"F. c #E7F2FE",
"G. c #E6F1FE",
"H. c #E8F3FE",
/* pixels */
"                                                                                                ",
"                                                                                                ",
"                                                                                                ",
"                                                                                                ",
"                                                                                                ",
"                                                                                                ",
"                                0 7 7 4                                                         ",
"                              4 4 4 4 4 4 4 4 4                                                 ",
"                            4 4 < < < < < < < < 4 4                                             ",
"                          4 < , , > , > > > , , < < 4 4                                         ",
"                          < , > > : : ; : : : : > , < < 4 7                                     ",
"                        < > 2 i h z m M M M m l p 3 , , < 4 0                                   ",
"                        d M N N N N N N N N N N N N M h 2 < 4 7                                 ",
"                    N M N M N N M N N N N N N N N N M N I j 8 7 w                               ",
"                  N N N N N N N M n N N N N N N N N N N N N M j 0 w                     C Z     ",
"                N N N N N N N N N M g N N N N N N N N N N N N N M s                   r c C     ",
"              N N N N N N N N N N I h g N N N N N N N N N N N N N N k               4 w w c     ",
"            I N N N N N N N N N N U R 1 M N N N N N N N N N N N I I I P           < 4 4 w       ",
"          U U U I I I I N N N N N R W s f N N N N N N N I I I I U U U U E       ; , < 4 4       ",
"          E Y Y U 5.G.G.4.I I I R R W T - M I I N I I I I U U U Y Y Y E Q Q   # ; ; > , 4       ",
"          Q E E Y G.o o G.U U U R W ~ o.= m U U U U U Y U Y Y Y E Q Q ! ! / s @ # # > ,         ",
"        / ! ! ! ! F.o o G.E E E W ~ ( o., d Y Y Y Y E Y E Q Q ! Q ! ! / / ) ) # @ # ; >         ",
"        ) ) / / / s.F.F.a.Q W ! ~ _ o.#.e i E Q ! Q Q ! ! ! ! / / / ) _ ] ] ] D @ # ; >         ",
"        ] ] ] ] ) ) ) ) / / ~ / _ ( o.-.b 5 ~ ~ ! / / / ) ) ) ) _ ] ] ] ;.] ,.@.+ @ # >         ",
"        b S ' ] ] ] ] ] _ _ _ _ ] *.=.-.A a / ] ] ) ] ] ] ] ] ] ] ;.;.,.,.3.7.p.+ @ # >         ",
"            % y :.:.;.&.] ] ] &.%.=.1.6.y s ] ] ] ] ] ] ] <.] <.,.3.7.8.z.M.x.} @ @ ; >         ",
"            . . * 7.7.3.7.3.,.,.3.1.6.6.q J ,.,.<.<.<.7.,.8.8.q.x.x.x.n.x.x.h.& + # ; >         ",
"          % $ u e.x.n.n.x.M.x.z.l.f.d.d.9 ` 0.q.j.l.z.x.x.x.x.x.c.x.c.x.c.k.[ @ # # : ,         ",
"          k.c.c.n.c.c.x.x.n.N.N.A.D.D.V.B l.x.c.x.c.c.c.c.c.c.c.m.k.k.c.c.k.  @ # ; , < 4       ",
"          k.k.k.k.k.k.c.k.c.M.N.N.A.S.X. .c.c.c.c.c.c.k.c.k.c.k.k.k.k.k.k.      ; > , < 7       ",
"            k.k.k.h.k.k.k.k.k.b.b.C.B.{ u.k.k.k.k.k.k.k.k.k.k.k.h.y.h.h.          , < 4 w       ",
"              h.h.h.k.h.h.k.h.k.v.b...r.k.k.k.k.k.k.g.k.i.k.k.i. .r }               4 w w c     ",
"                h.h.h.h.h.h.h.h.h.i.+.h.h.h.h.h.h.h.h.h.h.h.5.H r r 7                 w c c     ",
"                  h.h.h.h.h.h.h.i.t.v.h.h.h.h.h.h.h.h.h.h.g.K F Z r r                   V Z     ",
"                    h.h.h.h.h.h.h.h.h.h.h.h.h.h.y. .A w.h.h.  J F Z r w                         ",
"                        h.h.h.h.h.h.h.h.y.r.+.K C c w A           Z V c                         ",
"                                h.h.h.h.O.J L F Z V r w                                         ",
"                                          J J G F Z V r w                                       ",
"                                            J J F Z Z c r                                       ",
"                                                J F Z C c r                                     ",
"                                                    F Z C c                                     ",
"                                                                                                ",
"                                                                                                ",
"                                                                                                ",
"                                                                                                ",
"                                                                                                ",
"                                                                                                ",
"                                                                                                "
};
