/* XPM */
static char *_02618daccd94f248a63b677645fa62eBIjQZsK84nySyIjK[] = {
/* columns rows colors chars-per-pixel */
"48 48 86 1 ",
"  c None",
". c #253237",
"X c #263138",
"o c #263238",
"O c #273238",
"+ c #263338",
"@ c #263239",
"# c #263339",
"$ c #273339",
"% c #28353B",
"& c #29353B",
"* c #28353C",
"= c #29353C",
"- c #29363C",
"; c #29373D",
": c #29393F",
"> c #2D3B42",
", c #2D3B43",
"< c #2E3D43",
"1 c #2E3C44",
"2 c #2F3C44",
"3 c #2E3D44",
"4 c #33424B",
"5 c #36454E",
"6 c #35464E",
"7 c #37464F",
"8 c #37474F",
"9 c #37484E",
"0 c #37484F",
"q c #374750",
"w c #374850",
"e c #384951",
"r c #384A51",
"t c #384952",
"y c #3A4C54",
"u c #3A4C55",
"i c #3A4D55",
"p c #3B4D55",
"a c #3B4D56",
"s c #3C4E56",
"d c #3C4E57",
"f c #3D4E57",
"g c #3C4F57",
"h c #3E5158",
"j c #3D515A",
"k c #3F525A",
"l c #3E525B",
"z c #3F525B",
"x c #3F535B",
"c c #3F535D",
"v c #41555F",
"b c #40565F",
"n c #42575F",
"m c #425660",
"M c #435760",
"N c #435861",
"B c #445862",
"V c #455962",
"C c #445863",
"Z c #445963",
"A c #455963",
"S c #455A63",
"D c #445964",
"F c #455964",
"G c #445A64",
"H c #455A64",
"J c #455B64",
"K c #445A65",
"L c #455A65",
"P c #455B65",
"I c #465A64",
"U c #465B64",
"Y c #475C64",
"T c #485D63",
"R c #F0DF3E",
"E c #F1E03E",
"W c #F2E03E",
"Q c #FAE73C",
"! c #FBE73C",
"~ c #FFEB3B",
"^ c #FEEA3C",
"/ c #929653",
"( c #9B9D51",
") c #9A9C52",
"_ c #9C9E51",
"` c #E8D940",
/* pixels */
"                                                ",
"                                                ",
"                                                ",
"                                                ",
"                                                ",
"                                                ",
"               HH                               ",
"               HHH                              ",
"               HHH          q           9       ",
"              HHH           77         09       ",
"         HHHHHHHH           770sHHHHAz77q       ",
"       HHHHHHHHH            0qzHHHHHHHx08       ",
"      HHHHHHHHY             qcAHHHHHHHHx8       ",
"      HHHH                  sHHHHHHHHHHHy       ",
"     HHH         HHHHHH     NT~!_HHH_!^Ym       ",
"     HHH      HHHHHHHHHHHH4 HHW~WHHHR^`AA       ",
"     HHH     HHHHHHHHHHHHH@-AH_!~HHY~Q/HH       ",
"     HHHH   HHHHHHHHHHHHHH-@nHHHD.@.HHHHH       ",
"      HHHH HHHHHHHHHHHHHHH3@yHHHH7.7HHHHH       ",
"      YHHHHHHHHHHHHHHHHHHHt@,HHHHHzHHHHH        ",
"       HHHHHHHHHHHHHHHHHHHA-@tAHHHHHHHHH        ",
"          HHHHHHHHHHHHHHHHHy.@tHHHHHHHH         ",
"           HHHHHHHHHHHHHHHHHw@+>ynAmI           ",
"           HHHHHHHHHHHHHHHHHHy-.@.@:            ",
"           HHHHHHHHHHHHHHHHHHHAt3-@>            ",
"           HHHHHHHHHHHHHHHHHHHAAHHHH            ",
"           HHHHHHHHHHHHHHHHHHHHHHHH             ",
"           HHHHHHHHHHHHHHHHHHHHHHHH             ",
"           HHHHHHHHHHHHHHHHHHHHHHH              ",
"           HHHHHHHHHHHHHHHHHHHHHHH              ",
"          HHHHHHHHHc7    HHHHHHHHA              ",
"          YHHHHHHH0@@      -HHHHH               ",
"          HHHHHHAh..       $sHHHH               ",
"          HHHHHHv@.        .$HHHH               ",
"          HHHHHg$          $$pHHHH              ",
"           HHHg$           .$$HHHH              ",
"          @AHHM            @.$pHHHI             ",
"          @sHHH            $$.-HHHH             ",
"         @@>HHHH           ..$.HHHH             ",
"         .@$HHHH           $$.$ HHHH            ",
"         .$.vHHHH          $$.$.MHHHH           ",
"          .@$mHHHH          .$.@>HHHHH          ",
"                                                ",
"                                                ",
"                                                ",
"                                                ",
"                                                ",
"                                                "
};
