/* XPM */
static char *c7aad6e754604f4ca3a2db6837d3a73f8Ctpw5v1HggVl4Ub[] = {
/* columns rows colors chars-per-pixel */
"48 48 149 2 ",
"   c #478E00",
".  c #4B8D00",
"X  c #508E04",
"o  c #4D9300",
"O  c #4E9901",
"+  c #529503",
"@  c #549B02",
"#  c #599D04",
"$  c #54960A",
"%  c #569B0A",
"&  c #599D0B",
"*  c #579B10",
"=  c #5A9D11",
"-  c #56A102",
";  c #5BA303",
":  c #5EAA02",
">  c #56A109",
",  c #5BA40B",
"<  c #5EAA0A",
"1  c #5CA312",
"2  c #5EA912",
"3  c #61A603",
"4  c #63AC03",
"5  c #69AE03",
"6  c #61A70A",
"7  c #63AC0B",
"8  c #68AE0A",
"9  c #65B102",
"0  c #6BB403",
"q  c #6DBA03",
"w  c #65B20C",
"e  c #6BB50C",
"r  c #6DBA0B",
"t  c #71B504",
"y  c #72BC03",
"u  c #7BBE06",
"i  c #70B70D",
"p  c #73BC0B",
"a  c #79BD0C",
"s  c #60A614",
"d  c #64AB13",
"f  c #69AE17",
"g  c #62A718",
"h  c #64AC19",
"j  c #69AE18",
"k  c #66B312",
"l  c #69B513",
"z  c #6CBA14",
"x  c #6BB41B",
"c  c #6EBB1A",
"v  c #71B716",
"b  c #73BC13",
"n  c #79BE11",
"m  c #70B51A",
"M  c #72BC1B",
"N  c #75C204",
"B  c #7AC405",
"V  c #7DC905",
"C  c #75C10B",
"Z  c #7CC009",
"A  c #7DC108",
"S  c #79C00C",
"D  c #7BC00D",
"F  c #7AC00F",
"G  c #7DC20D",
"H  c #7BC40B",
"J  c #77C80A",
"K  c #7DC90B",
"L  c #76C112",
"P  c #7BC113",
"I  c #7DC010",
"U  c #7EC112",
"Y  c #7EC217",
"T  c #7BC412",
"R  c #7EC912",
"E  c #72C01F",
"W  c #80C206",
"Q  c #80C208",
"!  c #80C10B",
"~  c #84C40B",
"^  c #84C60A",
"/  c #83C70E",
"(  c #82C60F",
")  c #84C40C",
"_  c #82C60A",
"`  c #84C90E",
"'  c #83CB0D",
"]  c #89CD0E",
"[  c #83D207",
"{  c #84D00E",
"}  c #82C515",
"|  c #84C717",
" . c #81C612",
".. c #85C912",
"X. c #87CB16",
"o. c #84CC13",
"O. c #8ACA12",
"+. c #8BCD13",
"@. c #88C915",
"#. c #89CA14",
"$. c #89CA16",
"%. c #88CC17",
"&. c #8CCE14",
"*. c #8ACE13",
"=. c #84C718",
"-. c #85C819",
";. c #87CA1A",
":. c #85CC1A",
">. c #8ACD1B",
",. c #8ECF19",
"<. c #8BCE1C",
"1. c #89CD1E",
"2. c #8ACE1B",
"3. c #84D012",
"4. c #8CD017",
"5. c #8ED017",
"6. c #8CD113",
"7. c #8DD01E",
"8. c #8ED11F",
"9. c #8CD21D",
"0. c #91D516",
"q. c #91D319",
"w. c #92D41A",
"e. c #95D51D",
"r. c #94D51F",
"t. c #92D51B",
"y. c #95D91D",
"u. c #89CD20",
"i. c #8ACE21",
"p. c #8ED121",
"a. c #8CD023",
"s. c #8DD221",
"d. c #90D321",
"f. c #91D422",
"g. c #92D523",
"h. c #95D622",
"j. c #92D525",
"k. c #92D526",
"l. c #93D626",
"z. c #94D727",
"x. c #92D522",
"c. c #97D822",
"v. c #96D927",
"b. c #95D920",
"n. c #93D728",
"m. c #95D828",
"M. c #95D829",
"N. c #96D929",
"B. c #97DA28",
/* pixels */
"+ o . . + + & # $ + + $ & * % + @ @ , 6 h h j j j d 8 d k 8 < , 2 1 2 x E z p n n  .=.-.U n ;.m.",
"  . + $ & # + + . + $ + . . + & , , 7 s j j f d 8 d d 7 , , < 2 h x c c v n n a } n a a =.d.z.z.",
"$ $ $ + + + . . + o o . o + * = s d d 6 k l w < 6 ; > , > 1 1 2 f v M b b Z Z u  .O.@.@.<.B.M.f.",
"X + X X . . . $ O .   o % 2 s s s d h d 6 w < - , ; @ > 1 h h j v i a a S y B / / $.r.h.d.j.m.m.",
". X X X X + + + . o + % , 2 s h , d d 7 ; ; - O O @ > 1 2 g x M n a a I Z B ^ 6.,.O.X.p.j.j.i.i.",
"X X X X + X + X + $ & 1 2 d 7 < 6 6 d 6 > @ O O > > , d l l v b t u ! W Q &.q.q.,.$.9.j.M.i.Y n ",
"X X X X + @ # + , = = s h d 7 ; 6 3 # ; @ O o % 2 , 6 k e t 0 t t W ~ ~ O.r.b.r.>.d.m.M.1.U p i ",
"X . X X @ & , & % 1 g s > - ; 7 # + + @ @ O O 1 1 k v v e 5 0 t ~ ~ O.w.e.r.h.s.d.j.1.U p i n T ",
". . X + $ > & & , & & % # ; ; @ O @ O O O @ , 7 k c r 9 5 y Z Z B ] 0.e.q.,.9.j.s.s.L C N J L L ",
". . X $ * & , & & & & # % @ @ @ O O % @ > , k l l 9 : 0 y S G / 6.0.y.y.,.$.9.j.s.R q q 0 9 C J ",
"o o $ & * * & & # + @ # , # + o o + O > 2 d w w : : 9 C  .Z  .>.b.9.4.2.q.p.:.| C 0 9 0 q N L R ",
"o $ * = * $ $ + + # # 6 > % o o % @ > < d 7 ; ; : q J o./  .2.r.r.3.X.1.i.:.P r 0 r r C C L J N ",
"$ & = & $ $ + & + # , @ o   o % > , 7 < 3 : ; ; p D H H / t.y.9.o.1.s.:.L N r 9 0 C L L L E L w ",
"= * $ + + + & 6 , , @ o o @ > > , 6 < ; @ - 4 0 D D K 6.9.y.q.3.:.1.1.R C q 9 r C r r C L z l E ",
"* $ $ @ + @ # 3 ; @ o O % 2 , > , > ; - ; : y H N _ 6.y.y.6.] ] s.:.C r r q q 9 J C r r w k k c ",
". $ $ # # # # @ . o O , , , - < < - @ ; 0 C K / o.6.t.0.6.] ] 3.:.R C N r C C J w L r w w c E c ",
"+ # @ + % , + . . > s > # , , ; - - ; 0 u G _ _ ] 6.0.0.] *.#.X.L J J 0 9 N C w z w w w k c c k ",
"+ X + & & + o . , , ; - > ; @ @ ; 4 t N V W ] 6.6.6.6.&.&.6.2.:.J J N r C C r L < w w w k k c E ",
"X + $ # . . + , s , @ @ - @ ; ; 4 r a S B ^ ] 0.] ] ' ` *.6.#.o.J q q q C N w l < z k w k z z E ",
"$ $ + .   @ 6 d @ @ @ # - @ ; w i a N y V ] 6.] ] ^ ` ` o.3.G C q q q r N w < : w k w k c c k k ",
"= X . . # d 7 ; # @ - @ @ @ : 9 y N N B ` 0.] V _ ] #.3.X.' H y q q q r J r w w w w k c c c c z ",
"X X X & 6 6 # @ # # @ @ @ ; 4 0 y W ' o.O.` ^ B _ 4.9.4.o.J N q q q r J z w w z w w c E k c E w ",
". X 6 8 3 @ + # @ @ @ @ ; 4 0 r B K o.3.' G V W { 6.4.o.V N N N q q q r k w k k c z E E k w z r ",
"@ 6 8 # @ @ @ + o O # 3 4 9 q C / ' / G G u B ^ ] { / N y q y y q r r w w z w w c E k k c z q J ",
"3 3 ; # + O + + @ @ # 4 5 9 C o.R R H t y S / _ ' V y y V y t V J N w w w E L w E k k l r 9 N V ",
"3 3 # + + + + @ @ ; 4 w p y C o.| C p p T T K V _ y u N y u V S N w k k w w w E k w E l N N N V ",
"$ @ @ + o o @ @ ; ; 9 p C T R | L p r b T T C N V N N N y y G t w w l l w w E E w C L r r N V V ",
"+ + X X o O ; ; : 4 0 q p R K D r r L T L p y N N B y 0 y D y r C w w w z E w w w w w N N J [ [ ",
". o . o o @ ; 3 4 9 q q C H C t t L T T i y q y q q 9 q T D r r E w w w k z w w w w N N J ' [ ' ",
". . o o + @ ; 4 5 q H H H C p 0 C K H a y C C q y 9 0 C p r i w < k w l k w w w N 9 N J { { K K ",
"o . o + @ ; 7 9 r C R T p t y p H S V y C a q q q 9 q C r w w 7 < k k k k k w C 9 N N J ' ' R D ",
". o + + # ; 7 9 p T T p q 0 p G S u N S C q 0 9 : q r r r 9 3 l k z k w w E w r N J V V K K R H ",
"o o O @ # 5 t p G a i q 0 i H y y N N y 0 r 9 : 9 q 9 w w : k w k z w < w w w q J J V V V R T L ",
"o O @ @ ; 5 r p t i 5 0 p i q N S N y 0 : : : : r : C w : w : c k < 2 z w : q J J J V V K J C r ",
"+ + @ ; 4 i p t 0 5 5 e U y 0 N V 0 9 9 : : 9 9 w : : w < : w k w : k w 9 9 J J N J J N H C r r ",
"@ + @ 3 e b i 8 e 5 e T a y y y q 9 9 4 4 4 9 w : C : < < : z - < z r 9 9 q J q N N N N y q C T ",
"O # 3 5 v i 8 3 8 7 e a 0 q y y 9 9 : : : : : : 9 : z - : c : : w 9 9 N J N q J H K S y q y C R ",
"+ 7 l 8 8 3 3 3 3 p t 0 q 0 0 q : 9 < : : w w : : - : w w k w : 9 9 N J J N N J R C q q C G K ' ",
"; e e 8 7 3 # 8 5 p q 9 0 0 9 0 : 9 : : < w w : - < - z k - z : 9 N J J N J J J C q 0 q K K K [ ",
"4 e 8 ; 3 6 3 e p r y t 0 0 9 ; : : < w w : - - : - z < - : : q J J K J 9 q q 9 q N y H K V V ' ",
"5 5 3 3 3 # 4 a 0 y t 0 0 0 7 4 - - - - - - - - - k < : : 4 0 C 3.V N J N 9 9 0 q N N N V V V N ",
"4 3 # 3 8 5 5 t t 0 0 0 5 3 ; - @ O - - : - - - 7 w 9 - : q R ' N q T J : : C 9 9 q N N N V B V ",
"3 # # 3 5 5 t t q t w 4 7 ; ; @ O > < - O O > < k - ; 9 y K _ K q V C 9 : 9 0 q N N N N V N C C ",
"3 ; # 3 5 t y t 0 9 7 3 , - - - O , > O O - < < - @ : N / V B V J T 9 : 9 9 9 y J N N N H C r e ",
"# # 3 5 5 t p 5 4 4 , # + + @ @ , O   O > < ; - O 0 C y N V B W :.5 ; 9 0 0 N N K N y D L p 7 3 ",
"# 3 5 t 0 t 0 3 # , # + o O O @ >     > , - @ ; 9 C y y ] ] N u 0 4 4 9 0 y H K N S D p r w 7 7 ",
"3 5 5 5 t 5 3 # + + o o O O O O   o > ; ; @ ; e n y 0 V 0.W t 5 ; 9 0 0 y y N H y a n e 7 7 w d ",
"5 5 3 3 3 # + . + o o O + # O   o O - O - < k e 0 0 u V t 5 5 5 i 9 q H 0 y V y p p e 5 7 k k w "
};
