/* XPM */
static char *d38aec97aa674222991d00714af223deoab2WitRs04UY1nW[] = {
/* columns rows colors chars-per-pixel */
"48 48 137 2 ",
"   c None",
".  c #040403",
"X  c #0A0705",
"o  c #040907",
"O  c #0C0906",
"+  c #050C09",
"@  c #0C0B0A",
"#  c #100B06",
"$  c #130F0B",
"%  c #07120D",
"&  c #0C120E",
"*  c #12110E",
"=  c #1B130C",
"-  c #0C1611",
";  c #0C1C14",
":  c #141412",
">  c #1B1611",
",  c #1B1C14",
"<  c #1C1B19",
"1  c #20160D",
"2  c #251C13",
"3  c #2B1D12",
"4  c #0B2116",
"5  c #0E2118",
"6  c #1B2017",
"7  c #14241B",
"8  c #112D1F",
"9  c #2D2014",
"0  c #22251B",
"q  c #2D241B",
"w  c #332215",
"e  c #382516",
"r  c #32261B",
"t  c #35291D",
"y  c #3A2A1C",
"u  c #123424",
"i  c #1B3226",
"p  c #133826",
"a  c #1C3528",
"s  c #153D2A",
"d  c #262726",
"f  c #292A29",
"g  c #362C23",
"h  c #213D2F",
"j  c #383426",
"k  c #233F30",
"l  c #323636",
"z  c #393B39",
"x  c #452E1B",
"c  c #47301C",
"v  c #4C331E",
"b  c #433224",
"n  c #423629",
"m  c #4F3E2E",
"M  c #513620",
"N  c #513D2C",
"B  c #16452F",
"V  c #164A31",
"C  c #184E34",
"Z  c #195237",
"A  c #1A5439",
"S  c #1C5C3E",
"D  c #254333",
"F  c #2B4E3B",
"G  c #3E423F",
"H  c #2E513F",
"J  c #57422E",
"K  c #5C4631",
"L  c #674E37",
"P  c #6D523A",
"I  c #72563D",
"U  c #1D5F40",
"Y  c #2F5340",
"T  c #315642",
"R  c #365E48",
"E  c #1E6141",
"W  c #206745",
"Q  c #206946",
"!  c #226E4A",
"~  c #39644D",
"^  c #23714C",
"/  c #277D54",
"(  c #454847",
")  c #464A48",
"_  c #4D514F",
"`  c #515655",
"'  c #555A59",
"]  c #595F5E",
"[  c #7D5F43",
"{  c #417257",
"}  c #44775C",
"|  c #497F62",
" . c #6A706F",
".. c #6D7575",
"X. c #737B7B",
"o. c #856447",
"O. c #866548",
"+. c #8D6A4B",
"@. c #926E4E",
"#. c #977251",
"$. c #9C7654",
"%. c #9F7855",
"&. c #A37B57",
"*. c #29865A",
"=. c #2B8C5E",
"-. c #4B8264",
";. c #4F8A6B",
":. c #518D6D",
">. c #52906F",
",. c #589A77",
"<. c #5A9D79",
"1. c #64AE87",
"2. c #66B28A",
"3. c #68B68C",
"4. c #6AB98F",
"5. c #6CBC91",
"6. c #70C397",
"7. c #71C598",
"8. c #838C8C",
"9. c #869090",
"0. c #97A2A2",
"q. c #9BA6A6",
"w. c #99A3A3",
"e. c #A6B2B2",
"r. c #B0BDBD",
"t. c #B4C0C0",
"y. c #BDCACA",
"u. c #C4D1D1",
"i. c #CBD9D9",
"p. c #CDDBDB",
"a. c #CEDCDC",
"s. c #CEDDDD",
"d. c #D0DFDF",
"f. c #D3E1E1",
"g. c #D1E0E0",
"h. c #D6E5E5",
"j. c #D5E4E4",
/* pixels */
"                                                                                                ",
"                                                                                                ",
"                                                                                                ",
"                                                                                                ",
"                                                                                                ",
"                                                                                                ",
"                            @ ' ' @                                                             ",
"                          @ ` h.h.t.:                                                           ",
"                          @ y.h.h.h.w.@                                                         ",
"                          ( h.h.h.h.j.' :                     @ @                               ",
"                        * e.h.h.h.h.h.a.<                 : < X...f :                           ",
"                        d h.h.j.g.X.q.j.q.@             : ) g.j.j.j. .*                         ",
"                      * X.j.j.u.f , * ] i.l O         : Y f.h.h.h.h.h.] >                       ",
"                      . $ ` 0.< 9 M M 2 . * .       * X _ 8.f.h.h.h.h.a.<                       ",
"                      1 v 3 , e M M M M M M > .     @ m K q n d.j.h.h.w.l -                     ",
"                    . y M M M M M M M M M M c .   X o.&.&.&.n < 9.r._ > N .                     ",
"                    X M M M M M M M M M M M M = . N &.&.&.&.&.I g , N %.&.g                     ",
"                  . 3 M M M M M M M M M M M M x . %.&.&.&.&.&.&.&.&.&.&.&.I O                   ",
"                  . x M M M M M M M M M M M M M $ L &.&.&.&.&.&.&.&.&.&.&.%..                   ",
"                  O M M M M M M M M M M M M M M e 2 &.&.&.&.&.&.&.&.&.&.&.&.t                   ",
"                . 3 M M M M M M M M M M M M M M M X o.&.&.&.&.&.&.&.&.&.&.&.P @                 ",
"                . c M M M M M M M M M M M M M M M 3 b &.&.&.&.&.&.&.&.&.&.&.%.X                 ",
"                # M M M M M M M M M M M M M M M M x X &.&.&.&.&.&.&.&.&.&.&.&.9                 ",
"              X 3 M M M M M M M M M M M M M M M M M = I &.&.&.&.&.&.&.&.&.&.&.L @               ",
"              . c M M M M M M M M M M M M M M M M M 9 g &.&.&.&.&.&.&.&.&.&.&.#.X               ",
"              # M M M M M M M M M M M M M M M M M M v X &.&.&.&.&.&.&.&.&.&.&.&.2               ",
"            . 3 M M M M M M M M M M M M M M M M M M M = P &.&.&.&.&.&.&.&.&.&.&.K +             ",
"            . c M M M M M M M M M M M M M M M M M M M w w &.&.&.&.&.&.&.&.&.&.&.@.X             ",
"            # M M M M M M M M M M M M M M M M M M M M M . $.&.&.&.&.&.&.&.&.&.&.&.=             ",
"          . 3 M M M M M M M M M M M M M M M M M M M M M = I &.&.&.&.&.&.&.&.&.&.&.J O           ",
"          . c M M M M M M M M M M M M v c c x y x y x c 3 b &.&.&.&.&.&.&.&.&.&.&.+.X           ",
"          # M M M M M M x w 2 6 * + . + - - 7 7 7 < - - . + < j J [ &.&.&.&.&.&.&.&.*           ",
"        . 3 M M c w , o - D ~ -.<.3.6.7.7.7.7.7.7.7.7.7.7.2.,.} T 7 o 0 K +.&.&.&.&.N X         ",
"        . c e , X h -.2.7.7.7.7.7.7.6.7.7.7.7.7.7.7.7.7.7.7.7.7.7.7.5.:.F - , K #.&.o.X         ",
"        . & 7 -.5.7.7.7.7.7.7.7.6.6.6.6.7.6.6.7.7.7.7.7.6.7.7.7.7.6.7.7.7.7.>.D + n @.$         ",
"      + 7 :.6.7.6.7.7.7.7.7.7.4.,.| { ~ T F D h a a 7 7 i i h F ~ -.<.5.7.7.7.7.2.R + & X       ",
"      & <.7.7.7.6.6.4.>.~ a & o 5 u B B C S S S W W ! ^ Q Q E Z B u ; o 7 T -.5.7.7.3.Y o       ",
"      + T 7.1.| Y 7 o 7 B E / =.=.=.=.=.=.=.=.=.=.=.=.=.=.=.=.=.=.=.=.=.! C 8 o a { 1.2.X       ",
"        o - + u C ! =.=.=.=.=.=.=.=.=.=.=.=.=.=.=.=.=.=.=.=.=.=.=.=.=.=.=.=.=.*.E p + - -       ",
"        o S =.=.=.=.=.=.=.=.=.=.=.=.=.=.=.=.=.=.=.=.=.=.=.=.=.*.Q A V V C E ^ =.=.=.=.u .       ",
"          u =.=.=.=.^ A s 4 + . . . + 4 u V S ! / *.=./ E B 4 . + o . X o + o o ; V E ;         ",
"          o A u % . o o                   . + + . . . o % o                       o o +         ",
"          o o                                                                                   ",
"                                                                                                ",
"                                                                                                ",
"                                                                                                ",
"                                                                                                ",
"                                                                                                "
};
