/* XPM */
static char *fb8475f1e78b449fb72768a61182f8abB5ClpMk1fPkJymDa[] = {
/* columns rows colors chars-per-pixel */
"48 48 6 1 ",
"  c None",
". c #F34336",
"X c #F44236",
"o c #F54236",
"O c #F44336",
"+ c #F44436",
/* pixels */
"                                                ",
"                                                ",
"                                                ",
"                                                ",
"                                                ",
"                                                ",
"                                                ",
"                                                ",
"                                                ",
"           OO                      OO           ",
"          OOOO                    OOOO          ",
"         OOOOOO                  OOOOOO         ",
"         OOOOOOO                OOOOOOO         ",
"          OOOOOOO              OOOOOOO          ",
"           OOOOOOO            OOOOOOO           ",
"            OOOOOOO          OOOOOOO            ",
"             OOOOOOO        OOOOOOO             ",
"              OOOOOOO      OOOOOOO              ",
"               OOOOOOO    OOOOOOO               ",
"                OOOOOOO  OOOOOOO                ",
"                 OOOOOO+OOOOOOO                 ",
"                  OOOOOOOOOOOO                  ",
"                   OOOOOOOOOO                   ",
"                    .OOOOOO.                    ",
"                    OOOOOOOO                    ",
"                   OOOOOOOOOO                   ",
"                  OOOOOOOOOOOO                  ",
"                 OOOOOOOOOOOOOO                 ",
"                OOOOOOO  OOOOOOO                ",
"               OOOOOOO    OOOOOOO               ",
"              OOOOOOO      OOOOOOO              ",
"             OOOOOOO        OOOOOOO             ",
"            OOOOOOO          OOOOOOO            ",
"           OOOOOOO            OOOOOOO           ",
"          OOOOOOO              OOOOOOO          ",
"         OOOOOOO                OOOOOOO         ",
"         OOOOOO                  OOOOOO         ",
"          OOOO                    OOOO          ",
"           OO                      OO           ",
"                                                ",
"                                                ",
"                                                ",
"                                                ",
"                                                ",
"                                                ",
"                                                ",
"                                                ",
"                                                "
};
