/* XPM */
static char *result[] = {
/* columns rows colors chars-per-pixel */
"48 48 171 2 ",
"   c black",
".  c #010101",
"X  c #020101",
"o  c #020201",
"O  c #030201",
"+  c #030301",
"@  c #020202",
"#  c #040201",
"$  c #040301",
"%  c #070202",
"&  c #060401",
"*  c #060501",
"=  c #080302",
"-  c #080601",
";  c #090701",
":  c #090702",
">  c #0D0502",
",  c #0E0502",
"<  c #0B0802",
"1  c #0C0902",
"2  c #0D0B02",
"3  c #110604",
"4  c #140704",
"5  c #150704",
"6  c #160704",
"7  c #110D02",
"8  c #140F02",
"9  c #151002",
"0  c #161102",
"q  c #171203",
"w  c #181302",
"e  c #181303",
"r  c #191303",
"t  c #1D1503",
"y  c #1D1703",
"u  c #1E1703",
"i  c #210A05",
"p  c #280D08",
"a  c #2D0E08",
"s  c #211A04",
"d  c #251C04",
"f  c #261D04",
"g  c #281F04",
"h  c #311008",
"j  c #341109",
"k  c #391109",
"l  c #3F140B",
"z  c #2C2204",
"x  c #2E2204",
"c  c #2F2304",
"v  c #312504",
"b  c #322604",
"n  c #332704",
"m  c #352704",
"M  c #392A04",
"N  c #392B04",
"B  c #3E3005",
"V  c #42150B",
"C  c #50180C",
"Z  c #641E0F",
"A  c #671E0F",
"S  c #403005",
"D  c #423205",
"F  c #483705",
"G  c #4C3905",
"H  c #4D3A05",
"J  c #523E05",
"K  c #513D07",
"L  c #523E07",
"P  c #6E2110",
"I  c #574205",
"U  c #584105",
"Y  c #594305",
"T  c #5D4705",
"R  c #604805",
"E  c #624A05",
"W  c #614907",
"Q  c #624A07",
"!  c #654D07",
"~  c #6A5007",
"^  c #6C5107",
"/  c #6E5207",
"(  c #6F5407",
")  c #765907",
"_  c #745908",
"`  c #795B08",
"'  c #842813",
"]  c #AB331A",
"[  c #AC331A",
"{  c #B0351A",
"}  c #CB3D1E",
"|  c #CE3E1E",
" . c #806008",
".. c #826208",
"X. c #826308",
"o. c #856408",
"O. c #896708",
"+. c #8A6809",
"@. c #8B6A09",
"#. c #8E6B09",
"$. c #926D09",
"%. c #926E09",
"&. c #956F09",
"*. c #957009",
"=. c #98730A",
"-. c #9B750A",
";. c #9D760A",
":. c #9E770A",
">. c #A1790A",
",. c #A57D0B",
"<. c #A67D0B",
"1. c #A67E0B",
"2. c #D74120",
"3. c #E34421",
"4. c #E74522",
"5. c #E94622",
"6. c #EA4722",
"7. c #EB4722",
"8. c #EE4823",
"9. c #EF4823",
"0. c #AC810B",
"q. c #B0850B",
"w. c #B1850B",
"e. c #B2860B",
"r. c #B5880B",
"t. c #B68A0B",
"y. c #B88B0B",
"u. c #BB8D0B",
"i. c #C0910C",
"p. c #C3930C",
"a. c #C4930C",
"s. c #C6950D",
"d. c #C7950D",
"f. c #C7960D",
"g. c #C8960D",
"h. c #C9970D",
"j. c #CB990D",
"k. c #CD990D",
"l. c #CD9A0D",
"z. c #CE9B0D",
"x. c #D29E0E",
"c. c #D39F0E",
"v. c #D6A10E",
"b. c #D8A30D",
"n. c #DBA60D",
"m. c #DAA40E",
"M. c #DBA50E",
"N. c #DCA60D",
"B. c #DFA70D",
"V. c #E1AA0E",
"C. c #E2AA0E",
"Z. c #E4AC0E",
"A. c #E6AE0F",
"S. c #E8AE0F",
"D. c #E9B00F",
"F. c #ECB20F",
"G. c #EEB20F",
"H. c #EFB40F",
"J. c #F0B50F",
"K. c #F5B90F",
"L. c #F6B90F",
"P. c #F6B910",
"I. c #F7BA10",
"U. c #F9BB10",
"Y. c #FBBC10",
"T. c #FBBD10",
"R. c #FCBD10",
"E. c #FDBD10",
"W. c #FDBE10",
"Q. c #FEBF10",
"!. c None",
/* pixels */
"!.!.!.!.!.!.!.!.!.!.!.!.!.!.!.!.!.!.!.!.!.!.!.!.!.!.!.!.!.!.!.!.!.!.!.!.!.!.!.!.!.!.!.!.!.!.!.!.",
"!.!.!.!.!.!.!.!.!.!.!.!.!.!.!.!.!.!.!.!.!.!.!.!.!.!.!.!.!.!.!.!.!.!.!.!.!.!.!.!.!.!.!.!.!.!.!.!.",
"!.!.!.!.!.!.!.!.!.!.!.!.!.!.!.!.!.!.!.!.!.!.!.!.!.!.!.!.!.!.!.!.!.!.!.!.!.!.!.!.!.!.!.!.!.!.!.!.",
"!.!.!.!.!.!.!.!.!.!.!.!.!.!.!.!.!.!.!.!.!.!.!.!.!.!.!.!.!.!.!.!.!.!.!.!.!.!.!.!.!.!.!.!.!.!.!.!.",
"!.!.!.!.!.!.!.!.!.!.!.!.!.!.!.!.!.!.!.!.!.!.!.!.!.!.@ . o . !.!.!.!.!.!.!.!.!.!.!.!.!.!.!.!.!.!.",
"!.!.!.!.!.!.!.!.!.!.!.!.!.!.!.!.!.!.!.!.!.!.!.!.!.. r z.s @ !.!.!.!.!.!.!.!.!.!.!.!.!.!.!.!.!.!.",
"!.!.!.!.!.!.!.!.!.!.!.!.!.!.!.!.!.!.!.!.!.!.!.!.. F W.s.. !.!.!.!.!.!.!.!.!.!.!.!.!.!.!.!.!.!.!.",
"!.!.!.!.!.!.!.!.!.!.!.!.!.!.!.!.!.!.!.!.!.!.!.. ^ Q.Q.v @ !.!.!.!.!.!.!.!.!.!.!.!.!.!.!.!.!.!.!.",
"!.!.!.!.!.!.!.!.!.!.!.!.!.!.!.!.!.!.!.!.!.!..  .Q.Q.J.X !.!.!.!.!.!.!.!.!.!.!.!.!.!.!.!.!.!.!.!.",
"!.!.!.!.!.!.!.!.!.!.!.!.!.!.!.!.!.!.!.!.!.. @.Q.Q.Q.&.. !.!.!.!.!.!.!.!.!.!.!.!.!.!.!.!.!.!.!.!.",
"!.!.!.!.!.!.!.!.!.!.!.!.!.!.!.!.!.!.!.!.. #.Q.Q.Q.Q.F @ !.!.!.!.!.!.!.!.!.!.!.!.!.!.!.!.!.!.!.!.",
"!.!.!.!.!.!.!.!.!.!.!.!.!.!.!.!.!.!.!.. R Q.Q.Q.Q.Q.0 !.!.!.!.!.!.!.!.!.!.!.!.!.!.!.!.!.!.!.!.!.",
"!.!.!.!.!.!.!.!.!.!.!.!.!.!.!.!.!.!.. n Q.Q.Q.Q.Q.Q.: !.!.!.!.!.!.!.!.!.!.!.!.!.!.!.!.!.!.!.!.!.",
"!.!.!.!.!.!.!.!.!.!.!.!.!.!.!.!.!.!.1 U.Q.Q.Q.Q.Q.Q.$ !.!.!.!.!.!.!.!.!.!.!.!.!.!.!.!.!.!.!.!.!.",
"!.!.!.!.!.!.!.!.!.!.!.!.!.!.!.!.!.. g.Q.Q.Q.Q.Q.Q.Q.o !.!.!.!.!.!.!.!.!.!.!.!.!.!.!.!.!.!.!.!.!.",
"!.!.!.!.!.!.!.!.!.!.!.!.!.!.!.!.@ M Q.Q.Q.Q.Q.Q.Q.Q.X !.!.!.!.!.!.!.!.!.!.!.!.!.!.!.!.!.!.!.!.!.",
"!.!.!.!.!.!.!.!.!.!.!.!.!.!.!.!.. C.Q.Q.Q.Q.Q.Q.Q.Q.X !.!.!.@ . !.!.!.!.!.!.!.!.!.!.!.!.!.!.!.!.",
"!.!.!.!.!.!.!.!.!.!.!.!.!.!.!.!.g Q.Q.Q.Q.Q.Q.Q.Q.Q.o !.!.. g e !.!.!.!.!.!.!.!.!.!.!.!.!.!.!.!.",
"!.!.!.!.!.!.!.!.!.!.!.!.!.!.!.. w.Q.Q.Q.Q.Q.Q.Q.Q.Q.& !.!.* L.J @ !.!.!.!.!.!.!.!.!.!.!.!.!.!.!.",
"!.!.!.!.!.!.!.!.!.!.!.!.!.!.!.: Q.Q.Q.Q.Q.Q.Q.Q.Q.Q.q !.. ..Q.f.. !.!.!.!.!.!.!.!.!.!.!.!.!.!.!.",
"!.!.!.!.!.!.!.!.!.!.!.!.!.!.@ T Q.Q.Q.Q.Q.Q.Q.Q.Q.Q.D . O L.Q.Q.8 !.!.!.!.!.!.!.!.!.!.!.!.!.!.!.",
"!.!.!.!.!.!.!.!.!.!.!.!.!.!.. a.Q.Q.Q.Q.Q.Q.Q.Q.Q.Q.t.. n Q.Q.Q.p.. !.!.!.!.!.!.!.!.!.!.!.!.!.!.",
"!.!.!.!.!.!.!.!.!.!.!.!.!.!.O E.Q.Q.Q.Q.Q.Q.Q.Q.Q.Q.Q.S r.Q.Q.Q.Q.E . !.!.!.!.!.!.!.!.!.!.!.!.!.",
"!.!.!.!.!.!.!.!.!.!.!.. !.!.z Q.Q.Q.Q.Q.Q.Q.Q.Q.Q.Q.Q.Q.Q.Q.Q.Q.Q.Q.v . !.!.!.!.!.!.!.!.!.!.!.!.",
"!.!.!.!.!.!.!.!.!.!.. . !.@ / Q.Q.Q.Q.Q.Q.Q.Q.Q.Q.Q.Q.Q.Q.Q.Q.Q.Q.Q.U.e . !.!.!.!.!.!.!.!.!.!.!.",
"!.!.!.!.!.!.!.!.!.!.X B @ . 1.Q.Q.Q.Q.Q.Q.Q.Q.Q.Q.Q.Q.Q.Q.Q.Q.Q.Q.Q.Q.H.- !.!.!.!.!.!.!.!.!.!.!.",
"!.!.!.!.!.!.!.!.!.!.d u.. . k.Q.Q.Q.Q.Q.Q.Q.Q.Q.Q.Q.Q.Q.Q.Q.Q.Q.Q.Q.Q.Q.l.. !.!.!.!.!.!.!.!.!.!.",
"!.!.!.!.!.!.!.!.!.@ ^ Q.s . N.Q.Q.Q.Q.Q.m ~ Q.Q.Q.Q.Q.Q.Q.Q.Q.Q.Q.Q.Q.Q.Q.H . !.!.!.!.!.!.!.!.!.",
"!.!.!.!.!.!.!.!.!.. ;.Q.I.! T.Q.Q.Q.Q.q.X . e.Q.Q.Q.Q.Q.Q.Q.Q.Q.Q.Q.Q.Q.Q.F.. !.!.!.!.!.!.!.!.!.",
"!.!.!.!.!.!.!.!.!.. d.Q.Q.Q.Q.Q.Q.Q.Q.c l P $ c.Q.Q.Q.Q.Q.Q.Q.Q.Q.Q.Q.Q.Q.Q.t !.!.!.!.!.!.!.!.!.",
"!.!.!.!.!.!.!.!.!.. V.Q.Q.Q.Q.Q.Q.Q.Q.O { 9.C O i.Q.Q.Q.Q.Q.Q.Q.Q.Q.Q.Q.Q.Q.U @ !.!.!.!.!.!.!.!.",
"!.!.!.!.!.!.!.!.!.. Z.Q.Q.Q.Q.Q.Q.Q.M.. 5.9.9.A o ( R.Q.Q.Q.Q.Q.Q.Q.Q.Q.Q.Q.O.. !.!.!.!.!.!.!.!.",
"!.!.!.!.!.!.!.!.!.. A.Q.Q.Q.Q.Q.Q.Q.-.> 9.9.9.9.] % 7 0.W.Q.Q.Q.Q.Q.Q.Q.Q.Q.%.. !.!.!.!.!.!.!.!.",
"!.!.!.!.!.!.!.!.!.. Z.Q.Q.Q.Q.Q.Q.Q.) i 9.9.9.9.9.4.Z # ; o.Y.Q.Q.Q.Q.Q.Q.Q.` . !.!.!.!.!.!.!.!.",
"!.!.!.!.!.!.!.!.!.. j.Q.Q.Q.Q.Q.Q.Q.Y j 9.9.9.9.9.9.9.6.' = 9 D.Q.Q.Q.Q.Q.Q.G @ !.!.!.!.!.!.!.!.",
"!.!.!.!.!.!.!.!.!.. $.Q.Q.Q.Q.Q.Q.Q.L k 9.9.9.9.9.9.9.9.9.7.h u Q.Q.Q.Q.Q.Q.7 !.!.!.!.!.!.!.!.!.",
"!.!.!.!.!.!.!.!.!.  b Q.Q.Q.Q.Q.Q.Q.W p 9.9.9.9.9.9.9.9.9.9.6.O h.Q.Q.Q.Q.B.. !.!.!.!.!.!.!.!.!.",
"!.!.!.!.!.!.!.!.!.!.O U.Q.Q.Q.Q.Q.Q.#.> 9.9.9.9.9.9.9.9.9.9.9., <.Q.Q.Q.Q.K . !.!.!.!.!.!.!.!.!.",
"!.!.!.!.!.!.!.!.!.!.. *.Q.Q.Q.Q.Q.Q.S.. | 9.9.9.9.9.9.9.9.9.3.X b.Q.Q.Q.A.o !.!.!.!.!.!.!.!.!.!.",
"!.!.!.!.!.!.!.!.!.!.!.w Q.Q.Q.Q.Q.Q.Q.x 5 2.9.9.9.9.9.9.9.9.V 9 Q.Q.Q.Q.f @ !.!.!.!.!.!.!.!.!.!.",
"!.!.!.!.!.!.!.!.!.!.!.. e.Q.Q.Q.Q.Q.Q.K.X 3 [ 8.9.9.9.9.} a + v.Q.Q.Q.Q . !.!.!.!.!.!.!.!.!.!.!.",
"!.!.!.!.!.!.!.!.!.!.!.!.2 G.Q.Q.Q.Q.Q.Q.m.N o X > 6 4 % . b Z.Q.Q.Q._ . !.!.!.!.!.!.!.!.!.!.!.!.",
"!.!.!.!.!.!.!.!.!.!.!.!.. . 9 t.Q.Q.Q.Q.Q.Q.Q.M.>.X.+.y.P.Q.Q.Q.L.D . !.!.!.!.!.!.!.!.!.!.!.!.!.",
"!.!.!.!.!.!.!.!.!.!.!.!.!.!.  . y =.K.Q.Q.Q.Q.Q.Q.Q.Q.Q.Q.Q.Q.q.< . !.!.!.!.!.!.!.!.!.!.!.!.!.!.",
"!.!.!.!.!.!.!.!.!.!.!.!.!.!.!.!.!.. . d ~ ,.n.W.Q.Q.U.x.:.I 1 . !.!.!.!.!.!.!.!.!.!.!.!.!.!.!.!.",
"!.!.!.!.!.!.!.!.!.!.!.!.!.!.!.!.!.!.!.!.. . . . . . . . . @ !.!.!.!.!.!.!.!.!.!.!.!.!.!.!.!.!.!.",
"!.!.!.!.!.!.!.!.!.!.!.!.!.!.!.!.!.!.!.!.!.!.!.!.!.!.!.!.!.!.!.!.!.!.!.!.!.!.!.!.!.!.!.!.!.!.!.!.",
"!.!.!.!.!.!.!.!.!.!.!.!.!.!.!.!.!.!.!.!.!.!.!.!.!.!.!.!.!.!.!.!.!.!.!.!.!.!.!.!.!.!.!.!.!.!.!.!."
};
