/* XPM */
static char *result[] = {
/* columns rows colors chars-per-pixel */
"16 16 74 1 ",
"  c #707266",
". c #BA9B48",
"X c #BB9D49",
"o c #BB9E4B",
"O c #BC9D4A",
"+ c #BC9D4B",
"@ c #BC9E4B",
"# c #BD9E4B",
"$ c #BD9D4C",
"% c #BD9E4C",
"& c #BC9F4C",
"* c #BC9F4D",
"= c #BE9E4C",
"- c #BE9F4C",
"; c #BE9F4D",
": c #BF9F4D",
"> c #BDA04D",
", c #BEA04C",
"< c #BEA04D",
"1 c #BEA14D",
"2 c #BEA04E",
"3 c #BFA04E",
"4 c #BEA14E",
"5 c #BFA14F",
"6 c #BFA24E",
"7 c #C0A250",
"8 c #C0A350",
"9 c #C1A351",
"0 c #C3A554",
"q c #C3A654",
"w c #C4A654",
"e c #C4A655",
"r c #C5A856",
"t c #C5A857",
"y c #C5A957",
"u c #CAAE5D",
"i c #CBB05E",
"p c #CDB161",
"a c #CDB362",
"s c #D1B666",
"d c #D2B867",
"f c #D2B868",
"g c #D5BD6C",
"h c #D6BC6C",
"j c #D7BE6F",
"k c #D8BE6F",
"l c #DBC374",
"z c #DDC576",
"x c #DEC778",
"c c #E3CD7F",
"v c #E5CE80",
"b c #E5CF80",
"n c #E6D082",
"m c #E7D083",
"M c #E7D183",
"N c #EAD486",
"B c #F0DC90",
"V c #F1DE91",
"C c #F2DE92",
"Z c #F2DF92",
"A c #F4E194",
"S c #F6E297",
"D c #F6E397",
"F c #F6E398",
"G c #F9E69B",
"H c #FAE79C",
"J c #FBE99D",
"K c #FCEB9F",
"L c #FDEBA0",
"P c #FDECA0",
"I c #FEECA1",
"U c #FFEEA2",
"Y c #FFEEA3",
"T c None",
/* pixels */
"TTTTTTTTTTTTTTTT",
"TTTTTTTTTTTTTTTT",
"TTTTTT@$3TTTTTTT",
"TTTTToBGb<TTTTTT",
"TTTT>gMft-+2*TTT",
"T4TT&9pcAKPZs,TT",
"5hq0kDYYYYYYUeTT",
"@JYYYYYYYYYYYz@T",
"#LYYYYYYYYYY N5T",
"7zywvUYYYYiIYKr;",
"=OTT%aHYYYqCYYY.",
"TTTT@j8xFYlsSnu>",
"TTTT%mVd2X#.>6TT",
"TTTTT1+@:TTTTTTT",
"TTTTTTTTTTTTTTTT",
"TTTTTTTTTTTTTTTT"
};
