/* XPM */
static char *result[] = {
/* columns rows colors chars-per-pixel */
"30 30 117 2 ",
"   c #4A5156",
".  c #616460",
"X  c #B99B47",
"o  c #BB9A47",
"O  c #BA9B47",
"+  c #BB9C47",
"@  c #B99A48",
"#  c #B99B48",
"$  c #B99B49",
"%  c #BA9A48",
"&  c #BA9B48",
"*  c #BB9B48",
"=  c #BA9A49",
"-  c #BA9B49",
";  c #BA9C48",
":  c #BB9C48",
">  c #BB9C49",
",  c #BB9D49",
"<  c #BB9C4A",
"1  c #BC9C4A",
"2  c #BC9D4A",
"3  c #BC9D4B",
"4  c #BC9E4A",
"5  c #BD9E4C",
"6  c #BD9F4C",
"7  c #BE9F4C",
"8  c #BEA04E",
"9  c #BFA14E",
"0  c #BFA14F",
"q  c #C0A24F",
"w  c #C0A250",
"e  c #C0A350",
"r  c #C0A251",
"t  c #C1A352",
"y  c #C1A451",
"u  c #C1A452",
"i  c #C1A552",
"p  c #C3A653",
"a  c #C3A754",
"s  c #C5A856",
"d  c #C5A857",
"f  c #C6A957",
"g  c #C6A958",
"h  c #C7AB59",
"j  c #C8AC5A",
"k  c #C8AC5B",
"l  c #C9AC5C",
"z  c #C9AD5C",
"x  c #CAAE5C",
"c  c #CAAE5D",
"v  c #CAAF5D",
"b  c #CBB05E",
"n  c #CDB261",
"m  c #CDB262",
"M  c #CEB362",
"N  c #CEB363",
"B  c #CFB464",
"V  c #D0B665",
"C  c #D1B666",
"Z  c #D2B867",
"A  c #D3BA69",
"S  c #D4BB6A",
"D  c #D5BA6B",
"F  c #D5BB6B",
"G  c #D5BB6C",
"H  c #D5BC6C",
"J  c #D6BC6C",
"K  c #D6BD6D",
"L  c #D7BD6D",
"P  c #D8C070",
"I  c #D9C071",
"U  c #DAC172",
"Y  c #DBC273",
"T  c #DDC476",
"R  c #DEC677",
"E  c #DEC778",
"W  c #DFC778",
"Q  c #E1C97B",
"!  c #E0CA7B",
"~  c #E2CA7C",
"^  c #E3CC7E",
"/  c #E3CD7F",
"(  c #C5BC8A",
")  c #D1C790",
"_  c #D5CA91",
"`  c #E4CE80",
"'  c #E5CF81",
"]  c #E6CF82",
"[  c #E6D082",
"{  c #E7D284",
"}  c #E8D385",
"|  c #E9D385",
" . c #EBD689",
".. c #ECD789",
"X. c #EED98D",
"o. c #EEDA8D",
"O. c #EFDB8E",
"+. c #F0DD8F",
"@. c #E4D797",
"#. c #F1DD91",
"$. c #F2DE92",
"%. c #F2DF92",
"&. c #F4E295",
"*. c #F6E397",
"=. c #F9E79C",
"-. c #FAE79C",
";. c #FAE89C",
":. c #FBEA9E",
">. c #FBEA9F",
",. c #FCEBA0",
"<. c #FDEBA0",
"1. c #FEECA1",
"2. c #FEEDA2",
"3. c #FEEDA3",
"4. c #FFEEA2",
"5. c #FFEEA3",
"6. c None",
/* pixels */
								"6.6.6.6.6.6.6.6.6.6.6.6.6.6.6.6.6.6.6.6.6.6.6.6.6.6.6.6.6.6.",
								"6.6.6.6.6.6.6.6.6.6.6.6.6.6.6.6.6.6.6.6.6.6.6.6.6.6.6.6.6.6.",
								"6.6.6.6.6.6.6.6.6.6.6.6.6.6.6.6.6.6.6.6.6.6.6.6.6.6.6.6.6.6.",
								"6.6.6.6.6.6.6.6.6.6.6.6.6.6.6.6.6.6.6.6.6.6.6.6.6.6.6.6.6.6.",
								"6.6.6.6.6.6.6.6.6.6.6.& & & & & 6.6.6.6.6.6.6.6.6.6.6.6.6.6.",
								"6.6.6.6.6.6.6.6.6.6.& & c M d - & & 6.6.6.6.6.6.6.6.6.6.6.6.",
								"6.6.6.6.6.6.6.6.6.O & J 5.5.5.&.K - & 6.6.6.6.6.6.6.6.6.6.6.",
								"6.6.6.6.6.6.6.6.6.& p <.5.5.1.%.{ L 2 * - 6.6.6.6.6.6.6.6.6.",
								"6.6.6.6.6.6.6.6.& & | ;.] C 8 & & & & & & & & o 6.6.6.6.6.6.",
								"6.6.6.6.6.6.6.6.& i F 4 & & 4 b P Q / ~ T N 6 & + 6.6.6.6.6.",
								"6.& & o 6.6.6.6.& & & 5 D ..,.5.5.5.5.5.5.5.;.H & + 6.6.6.6.",
								"% & 3 & & & - & & j ^ :.5.5.5.5.5.5.5.5.5.5.5.5.G & - 6.6.6.",
								"& & #.E k r s D o.5.5.5.5.5.5.5.5.5.5.5.5.5.5.5.-.< & 6.6.6.",
								"& 1 4.5.5.5.5.5.5.5.5.5.5.5.5.5.5.5.5.5.5.5.5.5.5.v & 6.6.6.",
								"& w 5.5.5.5.5.5.5.5.5.5.5.5.5.5.5.5.5.5.5.5.5.5.5.S & 6.6.6.",
								"& e 5.5.5.5.5.5.5.5.5.5.5.5.5.5.5.5.5.5.5.5.(   _ W & 6.6.6.",
								"& , 4.5.5.5.5.5.5.5.5.5.5.5.5.5.5.5.5.5.5.5.) . @.o.& O 6.6.",
								"& & $.X.m t j R >.5.5.5.5.5.5.5.5.5.=.f [ 5.5.5.5.3.s & & # ",
								"@ & a & & & & & y  .5.5.5.5.5.5.5.5.#.& V 5.5.5.5.5.*.A 3 & ",
								"6.& & % 6.6.6.$ & - Y 2.5.5.5.5.5.5.;.- d 5.5.5.5.5.5.5.p & ",
								"6.= & 6.6.6.6.6.& > & k #.5.5.5.5.5.5.l & %.5.5.5.5.5.;.q & ",
								"6.6.6.6.6.6.6.6.& U z & > H &.5.5.5.5.` & n 4.5.3.+.I 9 & # ",
								"6.6.6.6.6.6.6.; & O.2.! 0 & & h P ^ } ' u & x c 7 & & & & 6.",
								"6.6.6.6.6.6.6.6.& m *.5.:.! g & & & & & & & & & & & 6.6.6.6.",
								"6.6.6.6.6.6.6.6.; & > c Z B y & & * X : 6.6.6.6.6.6.6.6.6.6.",
								"6.6.6.6.6.6.6.6.6.6.% & & & & & 6.6.6.6.6.6.6.6.6.6.6.6.6.6.",
								"6.6.6.6.6.6.6.6.6.6.6.6.6.6.6.6.6.6.6.6.6.6.6.6.6.6.6.6.6.6.",
								"6.6.6.6.6.6.6.6.6.6.6.6.6.6.6.6.6.6.6.6.6.6.6.6.6.6.6.6.6.6.",
								"6.6.6.6.6.6.6.6.6.6.6.6.6.6.6.6.6.6.6.6.6.6.6.6.6.6.6.6.6.6.",
								"6.6.6.6.6.6.6.6.6.6.6.6.6.6.6.6.6.6.6.6.6.6.6.6.6.6.6.6.6.6."
};
