/* XPM */
static char *_597c508b157477f8fd153e8aa185a8e209NWxJu50p0qPVk[] = {
/* columns rows colors chars-per-pixel */
"48 48 83 1 ",
"  c None",
". c #378D3C",
"X c #378E3C",
"o c #388D3C",
"O c #398D3D",
"+ c #388E3C",
"@ c #398E3C",
"# c #388F3C",
"$ c #388E3D",
"% c #398E3D",
"& c #388F3D",
"* c #398F3D",
"= c #398F3E",
"- c #39903C",
"; c #39903D",
": c #3A913D",
"> c #3A933F",
", c #3D923D",
"< c #3C933E",
"1 c #3B943F",
"2 c #40933E",
"3 c #45963E",
"4 c #3B9340",
"5 c #3C9540",
"6 c #3D9641",
"7 c #3D9741",
"8 c #3E9742",
"9 c #3E9942",
"0 c #3E9943",
"q c #409B45",
"w c #419E45",
"e c #429F46",
"r c #439F46",
"t c #529E40",
"y c #43A148",
"u c #45A249",
"i c #46A54A",
"p c #46A64A",
"a c #46A74B",
"s c #47A74B",
"d c #49AA4D",
"f c #4AAB4D",
"g c #4AAB4E",
"h c #4AAD4E",
"j c #4BAE4F",
"k c #4BAF4F",
"l c #57A241",
"z c #59A341",
"x c #4CB04F",
"c c #4DB04F",
"v c #4BAE50",
"b c #4BAF50",
"n c #4CAE50",
"m c #4CAF50",
"M c #4DAF50",
"N c #4DAE51",
"B c #64AA43",
"V c #66AC44",
"C c #69AD44",
"Z c #71B245",
"A c #75B547",
"S c #77B646",
"D c #7EBA47",
"F c #80BC48",
"G c #81BD49",
"H c #84BE49",
"J c #85BF49",
"K c #89C149",
"L c #8AC249",
"P c #8BC249",
"I c #8BC349",
"U c #88C14A",
"Y c #89C24A",
"T c #8BC24A",
"R c #8AC34A",
"E c #8BC34A",
"W c #8AC24B",
"Q c #8CC34A",
"! c #8AC44A",
"~ c #8BC44A",
"^ c #8AC44B",
"/ c #8CC449",
"( c #8CC44A",
/* pixels */
"                                                ",
"                                                ",
"                                                ",
"                                                ",
"                                                ",
"                                                ",
"                                                ",
"            v                                   ",
"             M                                  ",
"              M                                 ",
"              vM                                ",
"               M                                ",
"               MM          o                    ",
"                Mx         o                    ",
"                bm        &&       &            ",
"                 vM       &       &             ",
"                 mmm     &o       ;             ",
"                  mm     o&      o&             ",
"       Q      o   mmb    o-     oo      !       ",
"        !     oo  mmx   &oX     o&     /        ",
"        EE     o   mmm  -o&    &o      E        ",
"         E!    &&  mmm  ooo    o&     E         ",
"         EQ     oo mmm ;o-X   &o&    EE         ",
"          EE    oo  mmxXoX;   oo    EEE         ",
"          EEE   -o; vMM4o-&  ooo   QEE          ",
"           EQ!   oX MvMwoX   &o-   EEE          ",
"           QEE   &oovvmk&o  ooo-  EEE           ",
"           EEEE  oo&ammm1&  --oo  EEE           ",
"            EEE/ ;Xo1xkmwo oX-X  EEEE           ",
"            EEEE  -ooivma& -oo& QEEE!           ",
"            EEEE! Xoo<kMk-ooooo EEEE            ",
"             EEEE -o&XiMj9&o-o& EEEQ            ",
"             EEEEEX&oo9xvyXooo;!QEEE            ",
"             EEEEE2&oookmiooX-l!EEEE            ",
"             EEEEEVooXoyxdo-ooAEEEEE            ",
"             EEE//Foo-o9Mx;XooEEEEEQ            ",
"              EEEE!<X-o;Mv6oo3EEEEE             ",
"              EEEEEtoooXiMqoozEEEEE             ",
"              EEEE!Bo-o-yMw&-C!EEEE             ",
"              EEEE/ZoXoX9ku&oA/EEEE             ",
"              EEEEEDX&o-1mio&FEEEEE             ",
"              EEEEEJoooo;mdooJEEEEE             ",
"              EEEEEEo&o&;xk&oEEEEEE             ",
"                                                ",
"                                                ",
"                                                ",
"                                                ",
"                                                "
};
