/* XPM */
static char *_e53dea14f8e4fb9b523cb50daab3d605dewsuV8mcwfrHQP[] = {
/* columns rows colors chars-per-pixel */
"48 48 65 1 ",
"  c None",
". c gray13",
"X c #222222",
"o c #242526",
"O c #26292A",
"+ c #272B2D",
"@ c #282C2D",
"# c #282C2E",
"$ c #292D30",
"% c #292E30",
"& c #2A3032",
"* c #2A3033",
"= c #2B3033",
"- c #2E363A",
"; c #2F373B",
": c #344045",
"> c #354046",
", c #364247",
"< c #364248",
"1 c #3A4950",
"2 c #3B4A51",
"3 c #41545D",
"4 c #445862",
"5 c #445962",
"6 c #455A63",
"7 c #445964",
"8 c #455964",
"9 c #445965",
"0 c #455965",
"q c #445A64",
"w c #455A64",
"e c #455B64",
"r c #445A65",
"t c #455B65",
"y c #465B64",
"u c #465B65",
"i c #485D68",
"p c #4A5E69",
"a c #4A5F69",
"s c #4D626C",
"d c #4F646F",
"f c #566B76",
"g c #596E78",
"h c #5A6E79",
"j c #5E727C",
"k c #61757F",
"l c #647982",
"z c #697E88",
"x c #70838D",
"c c #70848E",
"v c #70858E",
"b c #71858F",
"n c #718690",
"m c #738690",
"M c #748992",
"N c #778C96",
"B c #7F939D",
"V c #8398A1",
"C c #8599A3",
"Z c #8599A4",
"A c #879CA6",
"S c #889BA5",
"D c #8B9EA9",
"F c #8B9FA9",
"G c #90A4AE",
/* pixels */
"                                                ",
"                                                ",
"                                                ",
"                                                ",
"                                                ",
"                 wwwwwwwwwuwwww                 ",
"             wwwwwwwwwwwwwwwwwwwwww             ",
"          wwwwwwwwwwwwwwwwwwwwwwwwwwww          ",
"        wwwwwwwwwwwwwwwwwwwwwwwwwwwwwwww        ",
"       wwwwww5w31:;%++o..oO#%;,13wwwwwwww       ",
"      wwwwww5,#..................#<5wwwwww      ",
"     wwwwwww*......................=wwwwwww     ",
"     wwwwwww*......................=wwwwwww     ",
"     wwwwwww5<#..................#<5wwwwwww     ",
"      wwwwwwwww31:-%#Oo..oO+%-:13wwwwwwwww      ",
"       wwwwwwwwwwwwwwwwwwwwwwwwwwwwwwwwww       ",
"        wwwwwwwwwwwwwwwwwwwwwwwwwwwwwwww        ",
"          wwwwwwwwwwwwwwwwwwwwwww5wwww          ",
"           Acgpwwwwwwwwww5www4wwwpgcA           ",
"           GGGGVMzkfdspwwssdflzMCGGGG           ",
"           GGGGGGGGGGGGGGGGGGGGGGGGGG           ",
"           GGGGGGGGGGGGGGGGGGGGGGGGGG           ",
"          nGGGGGGGGGGGGGGGGGGGGGGGGGGc          ",
"           jnZGGGGGGGGGGGGGGGGGGGGCnj           ",
"           wwwpflcNBZDDGGDDZBNxlfpwww           ",
"           wwwwwwwwwwwwwwwwwwwwwwwwww           ",
"           wwwwwwwwwwwwwwwwwwwwwwwwww           ",
"          wwwwwwwwwwwwwwwwwwwwwwwwwwww          ",
"          wwwwwwwwwwwwwwwwwwwwwwwwwww5          ",
"          wwwwwwwwwwwwwwwwwwwwwwwwwwww          ",
"          wwwwwwwwwwwwwwwwwwwwwwwwwwww          ",
"          uwwwwwwwwwwwwwwwwwwwwwwwwwww          ",
"          wwwwwwwwwwwwwwwwwwwwwwwwwwww          ",
"          wwwwwwwwwwwwwwwwwwwwwwwwwwu5          ",
"          wwwwwwwwwwwwwwwwwwwwwwwwwwwu          ",
"          wwwwwwwwwwwwwwwwwwwwwwwwwwww          ",
"          wwwwwwwwwwwwwwwwwwwwwwwwwwww          ",
"          wwwwwwwwwwwwwwwwwwwwwwwwwwww          ",
"          wwwwwwwwwwwwwwwwwwwwwwwwwwww          ",
"           wwwwwwwwwwwwwwwwwwwwwwwwww           ",
"            wwwwwwwwwwwwwwwwwwwwwwww            ",
"              wwwwwwwwwwwwwwwwwwww              ",
"                  uwu5uwww5uww                  ",
"                                                ",
"                                                ",
"                                                ",
"                                                ",
"                                                "
};
