/* XPM */
static char *result[] = {
/* columns rows colors chars-per-pixel */
"48 48 81 1 ",
"  c black",
". c #150D00",
"X c #160D00",
"o c #190D00",
"O c #180E00",
"+ c #190F00",
"@ c #1A0F00",
"# c #1B1000",
"$ c #472A00",
"% c #492C00",
"& c #783000",
"* c #7A3000",
"= c #754300",
"- c #764400",
"; c #764600",
": c #774600",
"> c #774700",
", c #784800",
"< c #ED4B00",
"1 c #FF4100",
"2 c #FD4300",
"3 c #FE4300",
"4 c #FF5400",
"5 c #C37400",
"6 c #C57500",
"7 c #F57C00",
"8 c #F57D00",
"9 c #F67E00",
"0 c #F67F00",
"q c #4CAF50",
"w c #4DAF50",
"e c #4CAE51",
"r c #4DAE51",
"t c #6EAB41",
"y c #8EA633",
"u c #CB9F17",
"i c #CA9E18",
"p c #F68000",
"a c #F78000",
"s c #F68100",
"d c #F78100",
"f c #F78200",
"g c #F78300",
"h c #FF8200",
"j c #FF8300",
"k c #F88500",
"l c #F98700",
"z c #F98800",
"x c #F98900",
"c c #FA8900",
"v c #FA8A00",
"b c #FA8B00",
"n c #FB8B00",
"m c #FB8C00",
"M c #FB8D00",
"N c #FC8F00",
"B c #F39405",
"V c #FC9000",
"C c #FC9100",
"Z c #FD9100",
"A c #FD9200",
"S c #FD9300",
"D c #F99400",
"F c #FD9400",
"G c #FE9400",
"H c #FE9500",
"J c #FE9600",
"K c #FF9600",
"L c #FE9700",
"P c #FF9700",
"I c #F69904",
"U c #F79904",
"Y c #FD9801",
"T c #FE9800",
"R c #FF9800",
"E c #FF9900",
"W c gray76",
"Q c #C3C3C3",
"! c #C9C6C3",
"~ c #CAC8C5",
"^ c None",
/* pixels */
"^^^^^^^^^^^^^^^^^^^^^^^^^^^^^^^^^^^^^^^^^^^^^^^^",
"^^^^^^^^^^^^^^^^^^^^^^^^^^^^^^^^^^^^^^^^^^^^^^^^",
"^^^^^^^^^^^^^^^^^^^^^^^^^^^^^^^^^^^^^^^^^^^^^^^^",
"^^^^^^^^^^^^^^^^^^^^^^^^^^^^^^^^^^^^^^^^^^^^^^^^",
"^^^^^^^^^^^^^^^^^^^^^^^^^^^^^^^^^^^^^^^^^^^^^^^^",
"^^^^^^^^^^^^^^^^^^^^^^^^^^^^^^^^^^^^^^^^^^^^^^^^",
"^^^^^^^^^^^^^^^^^^^^^^^^^^qq^^^^^^^^^^^^^^^^^^^^",
"^^^^^^^^^^^^^^^^^^^^^^^^^qqqr^^^^^^^^^^^^^^^^^^^",
"^^^^^^^^^^^^^^^^^^^^^^^^wqqqe^^^^^^^^^^^^^^^^^^^",
"^^^^^^^^^^^^^^^^^^^^^^^qqqqq^^^^^^^^^^^^^^^^^^^^",
"^^^^^^^^^^^^^^^^^^^^^^^qqqqq^^^^^^^^^^^^^^^^^^^^",
"^^^^^^^^^^^^^^^^^^^^^^qqqqq^^^^^^^^^^^^^^^^^^^^^",
"^^^^^^^^^^^^^^^^^^^^^^qqqqq^^^^^^^^^^^^^^^^^^^^^",
"^^^^^^^^^^^^^^^^RRRR^yuUIit^RRRR^^^^^^^^^^^^^^^^",
"^^^^^^^^^^RRRKVTRRRPATRRRRYBPRRRRNPRRR^^^^^^^^^^",
"^^^^^^^^ERRRHcPRRRHcPRRRRRRPvGRRRPvGRRRP^^^^^^^^",
"^^^^^^^PRRRSdPRRRSdPRRRRRRRRPdSRRRPdSRRRE^^^^^^^",
"^^^^^^^RRRPaVRRRPaVRRRRRRRRRRNsJRRRNsJRRR^^^^^^^",
"^^^^^^RRRRlsRRRRlsRRRRRRRRRRRPdlRRRPdlRRRR^^^^^^",
"^^^^^^RRRG8mRRRG8mRRRRRRRRRRRRn8GRRRn8GRRR^^^^^^",
"^^^^^RRRRl8HRRRl8HRRRRRRRRRRRRH7zRRRH7zRRRR^^^^^",
"^^^^^RRRR9fRRRR9fRRRRRRRRRRRRRRd0RRRRd0RRRR^^^^^",
"^^^^^RRRV7xRRRV7xRRRRRRRRRRRRRRl7CRRRl7CRRR^^^^^",
"^^^^PRRRv7MRRRv7MRRRRRRRRRRRRRRM7vRRRM7vRRRE^^^^",
"^^^^RRRRk7ZRD;~!-DRRRRRRRRRRRRD=~!>DRZ7kRRRP^^^^",
"^^^^ERRRa7GR> QW >RRRRRRRRRRRR> QW >RH7dRRRR^^^^",
"^^^^PRRR07JR+    ORRRRRRRRRRRR+    ORJ70RRRR^^^^",
"^^^^RRRR87PR@    #RRRRRRRRRRRR@    #RP78RRRR^^^^",
"^^^^RRRR87PR>    ,RRRRRRRRRRRR>    ,RP78RRRR^^^^",
"^^^^PRRR97JRD>oo:DRRRRRRRRRRRRD:oo>DRJ79RRRR^^^^",
"^^^^RRRRa7GRRRa7GRRR.      XRRRH7dRRRH7dRRRR^^^^",
"^^^^RRRRk7ARRRk7ARRR$      %RRRC7kRRRC7kRRRR^^^^",
"^^^^RRRRv7MRRRv7MRRR5*<32<&6RRRM7bRRRM7bRRRP^^^^",
"^^^^^RRRC7zRRRC7zRRRRj4114hRRRRz7CRRRz7CRRR^^^^^",
"^^^^^RRRP0dRRRP0dRRRRRRRRRRRRRRd9PRRRd9PRRR^^^^^",
"^^^^^RRRRl8HRRRl8HRRRRRRRRRRRRH7xRRRH7xRRRR^^^^^",
"^^^^^^RRRH8MRRRH8MRRRRRRRRRRRRn8HRRRn8HRRR^^^^^^",
"^^^^^^ERRRzpRRRRzpRRRRRRRRRRRPaxRRRPaxRRRR^^^^^^",
"^^^^^^^RRRPdNRRRPdNRRRRRRRRRRNaLRRRNaLRRR^^^^^^^",
"^^^^^^^PRRRFdPRRRFdPRRRRRRRRKgSRRRKgSRRRR^^^^^^^",
"^^^^^^^^PRRRHcPRRRHcPRRRRRRPvGRRRPvGRRRE^^^^^^^^",
"^^^^^^^^^^RRRRCRRRRPALRRRRLSPRRRRVPRRR^^^^^^^^^^",
"^^^^^^^^^^^^^^^^RRRR^^RRRR^^RRRR^^^^^^^^^^^^^^^^",
"^^^^^^^^^^^^^^^^^^^^^^^^^^^^^^^^^^^^^^^^^^^^^^^^",
"^^^^^^^^^^^^^^^^^^^^^^^^^^^^^^^^^^^^^^^^^^^^^^^^",
"^^^^^^^^^^^^^^^^^^^^^^^^^^^^^^^^^^^^^^^^^^^^^^^^",
"^^^^^^^^^^^^^^^^^^^^^^^^^^^^^^^^^^^^^^^^^^^^^^^^",
"^^^^^^^^^^^^^^^^^^^^^^^^^^^^^^^^^^^^^^^^^^^^^^^^"
};
