/* XPM */
static char *_64e43be68554c9dd3c9360567580cecruB9xEoswCjKquZs[] = {
/* columns rows colors chars-per-pixel */
"48 48 124 2 ",
"   c None",
".  c #000101",
"X  c #050708",
"o  c #060B0B",
"O  c #090F0F",
"+  c #090F10",
"@  c #0B1313",
"#  c #0E1A1A",
"$  c #111D1E",
"%  c #121F21",
"&  c #142324",
"*  c #172728",
"=  c #172929",
"-  c #192C2D",
";  c #1B2F30",
":  c #1D3334",
">  c #1F3939",
",  c #203739",
"<  c #213B3B",
"1  c #243F40",
"2  c #264344",
"3  c #284647",
"4  c #2B4B4C",
"5  c #2D4F51",
"6  c #2E5253",
"7  c #305455",
"8  c #315658",
"9  c #345C5D",
"0  c #365E60",
"q  c #376263",
"w  c #396365",
"e  c #3A6668",
"r  c #3C6A6B",
"t  c #3F6E71",
"y  c #3F7172",
"u  c #417374",
"i  c #447778",
"p  c #467B7C",
"a  c #477E80",
"s  c #487F81",
"d  c #4A8284",
"f  c #4C8588",
"g  c #4E8A8C",
"h  c #508D8F",
"j  c #518F92",
"k  c #539293",
"l  c #559698",
"z  c #57999B",
"x  c #599B9E",
"c  c #5A9FA1",
"v  c #5CA2A5",
"b  c #5EA6A8",
"n  c #5FA7A8",
"m  c #5FA7AA",
"M  c #5EA5A9",
"N  c #5FA7AA",
"B  c #5FA9AA",
"V  c #5FA8AA",
"C  c #60A7AB",
"Z  c #61A9AC",
"A  c #61ACAD",
"S  c #62ACAE",
"D  c #62ACAF",
"F  c #61ABAD",
"G  c #62ACB0",
"H  c #63ADB0",
"J  c #63AFB2",
"K  c #63B0B1",
"L  c #64B0B2",
"P  c #64B0B3",
"I  c #64B1B3",
"U  c #65B1B4",
"Y  c #65B2B5",
"T  c #65B3B5",
"R  c #66B3B4",
"E  c #66B2B5",
"W  c #67B3B6",
"Q  c #67B4B6",
"!  c #67B5B7",
"~  c #65B2B4",
"^  c #67B6B9",
"/  c #67B6B9",
"(  c #68B5B8",
")  c #68B6B8",
"_  c #68B7B9",
"`  c #69B7B9",
"'  c #68B7BA",
"]  c #68B8BC",
"[  c #69B8BC",
"{  c #6AB9BC",
"}  c #69BABC",
"|  c #6ABABD",
" . c #6ABBBE",
".. c #6BBBBE",
"X. c #6BBCBF",
"o. c #6AB9BC",
"O. c #6BBDC0",
"+. c #6CBDC0",
"@. c #6CBEC1",
"#. c #6DBEC1",
"$. c #6CBFC1",
"%. c #6CBEC1",
"&. c #6DC0C1",
"*. c #6DC0C2",
"=. c #6EC0C2",
"-. c #6EC1C4",
";. c #6FC2C4",
":. c #6EC2C5",
">. c #6FC4C7",
",. c #6EC1C4",
"<. c #6FC5C8",
"1. c #70C4C7",
"2. c #70C5C9",
"3. c #70C6C9",
"4. c #71C6C9",
"5. c #71C7C9",
"6. c #71C7CA",
"7. c #71C7C9",
"8. c #72C8CB",
"9. c #72C9CC",
"0. c #73CACD",
"q. c #74CBCE",
"w. c #74CCCF",
"e. c #74CCCF",
/* pixels */
"                                                                                                ",
"                                                                                                ",
"                                                                                                ",
"                        .                     . o & .                                           ",
"                      . : .                   X 1.w.0 .               . . . .                   ",
"            . .       o 0.X                 . i w.w.Q .               . O.| .       . .         ",
"          . < g X . . p w..                 . ' w.w.0.< . .           X w.w.< . . . e o         ",
"            o 6.@.o . 6.M .         . . . . o 1.w.w.w.w.0.g = . .     . c w.s . o | 8.X         ",
"            . @ <.@.u q.$ . . . o : 9 f G 0.w.q.w.w.w.z <.w.w.6.d = . . & q.| 4 6.;.# .         ",
"              . @ 0.w.q.8._ w.w.w.w.w.0.w.q.l 0.w.w.g . . e 6.w.w.w.6.u 8 q.w.w.Q X .           ",
"            . X - 6.w.w.e.w.e.e.w.w.c 6 & . . c w.w., .   . . , z 8.w.w.q.w.w.w.B @ .           ",
"          . r 0.w.w.w.w.e.e.0.6 @ . . .     . k w.w.- .       . . . < w.w.w.w.w.O.0.z o .       ",
"          * q.w.8.6 l e.e.e.8.X .           . 8 w.w.F : . . .     . v w.w.w.w.g . u 8.6.@       ",
"          . u q X . i e.e.e.w.I . . . . . O 3 ;.w.w.q.0.w.k 2 X X v 0.w.w.w.w.f . . . X .       ",
"            . .   . | e.: e e.e.x - u M 0.0.w.w.w.0 # p O.w.w.w.e.e.q.y @ 0.w.y .               ",
"                  X e.e.X . > e.w.w.q.q.c 0 : q 0.X . . . . I w.0.| - . . I w.w .               ",
"                  & w.0..   . z w.w.&.X . . . X ;..     . = 0.w.w.g .   . v w.i .               ",
"                . 8 w.M .   . E w.w.0.# .     . w.& . . : q.Q t e.D .   . p q.j .               ",
"                . z q.9 .   . w.M # X.8.# . . e w.w.w.<.0.g . . &.| .   . 4 q.k .               ",
"                . 6.q.@     o w.u . X M 6.l 0.w.w.w.w.w.E .   . l 6..     ; q.x .               ",
"                O w.G .     : w.9 .   O w.w.h - @ . < w.t .   . p w..     $ w.c .               ",
"        . . . . , w.8 . . . y w.& .   # 1.& . .     X w.C . . . t w.@ . . . w.F .               ",
"      o w j j r @.w.8.z e 8 ;.w.= . . u I .         . w.e.k 4 2 | q.j 5 u f w.g X # @ .         ",
"    . 4 w.w.w.w.w.w.e.e.w.e.e.w.w.w.w.w.6..         . &.e.e.0.0.w.w.w.q.q.q.w.w.w.w.0.7 .       ",
"      . & k | M 0.w.;.f e ' w.w.4 : f w.e.X         . M Q X . @ 4 q.0.M 8.w.w.w.q.0.v # .       ",
"          . . . s w.& . . o w.E . . . ' e.= .       . F w .   . & w.p . . X q w.9 . . .         ",
"              . w w.1 .   . | ' .   . 9 e.G . . . X q w.D .   . w w.:     . c w.@               ",
"              . 6 q.u .   . x 8..   . 4 w.w.&.v ;.G 8 u w.z . . f w.X     @ q.6..               ",
"              . 3 w.g .   . p e.X . O O.w.w.w.w.j . . . & w.D o E 0..   . q w.k .               ",
"              . , w.| .   . w e.8 > 8.Q @ , &.w.=       . , w.w.0.v .   . | w.4 .               ",
"                & w.0..   . 3 e.w.w.I X   . ; w.8 . . . . o q.w.w.r .   X 0.w.@                 ",
"                # w.w.o   . 4 w.w.w.o . . . & w.&.2 2 r B w.w.w.q.&.o . # e.q..                 ",
"                @ 0.w.% . f e.e.w.w.@.h 8 o # w.w.w.w.w.6.v p > @.q.;.# < w.v .                 ",
"        . .     # q.w.K E e.e.g - p @.w.w.w.w.w.w.B = o . . . . $ 0.q.q.w.w.4 . . & o .         ",
"      . 6 2 o . + w.w.w.w.w.p . . . . o 4 M w.w.8.X             . : w.w.w.w., = / w.8..         ",
"      . > 0.w.f u 0.w.w.w.F . .         . . w.w.w..       . . . o w w.w.w.w.w.w.0.w.z .         ",
"        . X u 8.e.e.e.e.w.0.g 6 @ . .     o w.w.w.o . o - 0 B w.w.w.w.w.w.w.w.&.r $ .           ",
"            . o e.e.e.8.X.w.e.e.w.@.8 X . o w.w.w.@.Q w.e.e.w.w.w.w.w.0.w.w.w.h . .             ",
"          . X B e.0.e.k . @ e X.w.w.w.6.q k w.w.w.w.w.6.B f e < # o o . g 0.I 0.8 .             ",
"          X _ 0.- O e.8.X . . . o 5 D w.w.w.w.w.w.z . . . . .         X @.d . k 0.6 .           ",
"        . f &.# . . 6.q.9 .       . . X 2 @.w.w.w.&                 . : w.& . . s e.X           ",
"        . o . .   . d w.k .             . = w.w.w.9 .               . 9 Q .     . X .           ",
"                    . y o                 . 6.w.w.3 .               . < @ .                     ",
"                      .                   . k 0.q.X                   . .                       ",
"                                            @ M > .                                             ",
"                                            . . .                                               ",
"                                                                                                ",
"                                                                                                "
};
