/* XPM */
static char *c15583a72deb46e2f8ee765172eeccb0nLAMyGZWJuugllLR[] = {
/* columns rows colors chars-per-pixel */
"48 48 145 2 ",
"   c None",
".  c #FF3D00",
"X  c #FF3E00",
"o  c #976D23",
"O  c #DE5310",
"+  c #FA4203",
"@  c #FF4102",
"#  c #FF4600",
"$  c #FF4703",
"%  c #FB4405",
"&  c #FD4606",
"*  c #FA4805",
"=  c #E8570F",
"-  c #EA560E",
";  c #FF5709",
":  c #FF5809",
">  c #E65910",
",  c #E65A10",
"<  c #EA5F10",
"1  c #FF7903",
"2  c #FF7E03",
"3  c #FF7714",
"4  c #FF7E16",
"5  c #358235",
"6  c #4C8F3D",
"7  c #4C903D",
"8  c #4D903D",
"9  c #50923E",
"0  c #51933E",
"q  c #659E47",
"w  c #669F48",
"e  c #67A049",
"r  c #77AE4A",
"t  c #77AE4B",
"y  c #78AE4A",
"u  c #BD892A",
"i  c #BD8A2A",
"p  c #F78A01",
"a  c #F78B01",
"s  c #F78B02",
"d  c #FB8F0C",
"f  c #FF881A",
"g  c #FF8B1B",
"h  c #FF911D",
"j  c #FF931D",
"k  c #FFA000",
"l  c #FFA100",
"z  c #FFA200",
"x  c #FFA201",
"c  c #FFA301",
"v  c #FFA401",
"b  c #FFA501",
"n  c #FFA601",
"m  c #FFA402",
"M  c #FFA702",
"N  c #FFA802",
"B  c #FFAA02",
"V  c #FFAB02",
"C  c #FFAC03",
"Z  c #FFAD03",
"A  c #FFAE03",
"S  c #FFAF03",
"D  c #FFB104",
"F  c #FFB204",
"G  c #FFB404",
"H  c #FFB504",
"J  c #FFB505",
"K  c #FFB605",
"L  c #FFB805",
"P  c #FFB905",
"I  c #FFBA05",
"U  c #FFB907",
"Y  c #FFBA06",
"T  c #FFBB06",
"R  c #FFBB07",
"E  c #FFBC06",
"W  c #FFBD06",
"Q  c #FFBE06",
"!  c #FFBF07",
"~  c #FFB00C",
"^  c #F7BF0A",
"/  c #FFBD09",
"(  c #FFA711",
")  c #FF9F21",
"_  c #FFBB2B",
"`  c #BDC22E",
"'  c #B9C230",
"]  c #FFC006",
"[  c #FFC106",
"{  c #FFC007",
"}  c #FFC107",
"|  c #FFC206",
" . c #FFC207",
".. c #F9C20A",
"X. c #FFC008",
"o. c #FFC108",
"O. c #FEC10A",
"+. c #FFC60D",
"@. c #FBC512",
"#. c #FBC514",
"$. c #F5CB25",
"%. c #EED33C",
"&. c #EDD33E",
"*. c #E2DF3F",
"=. c #FBD435",
"-. c #FFD634",
";. c #FFD835",
":. c #FFE22F",
">. c #FFE037",
",. c #FFEA3B",
"<. c #FFEB3B",
"1. c #F8E83C",
"2. c #8BBB49",
"3. c #97B442",
"4. c #97B542",
"5. c #8FB857",
"6. c #90B858",
"7. c #8BC249",
"8. c #8AC349",
"9. c #8BC349",
"0. c #89C04B",
"q. c #8BC14A",
"w. c #8AC24A",
"e. c #8BC24A",
"r. c #8BC34A",
"t. c #8BC24B",
"y. c #8AC34B",
"u. c #8EC048",
"i. c #8CC24A",
"p. c #8CC34A",
"a. c #8AC44A",
"s. c #8BC44A",
"d. c #8CC44A",
"f. c #91C549",
"g. c #A0CA47",
"h. c #A1CA47",
"j. c #ACCE46",
"k. c #B2CD65",
"l. c #B2CE65",
"z. c #D0DB41",
"x. c #E4DE5B",
"c. c #D5E272",
"v. c #DCE674",
"b. c #DCE775",
"n. c #E0E169",
/* pixels */
"                                                                                                ",
"                                                                                                ",
"                                            y.p.                                                ",
"                                          y.p.9.                                                ",
"                                          p.p.y.9.  p.7.                                        ",
"                                  p.y.    y.y.p.9.9.y.p.y.      9.y.p.                          ",
"                                  p.y.p.p.y.p.y.9.9.y.9.y.p.p.p.y.p.y.d.                        ",
"                          y.p.    y.p.y.y.p.h.z.y.9.p.y.p.y.p.y.p.y.p.y.                        ",
"                          y.p.y.9.y.9.t.t.g.,.<.j.d.p.y.p.y.p.y.y.p.y.p.                        ",
"                          p.y.p.p.i > % * =.,.z.f.y.y.p.y.p.y.p.y.y.9.                          ",
"                    y.y.p.y.y.3.- . . . f <.;.< 4.p.y.y 0 5 5 0 t y.y.y.                        ",
"                    y.p.p.p.p.- & ; . . -.<.4 X = 2.6 w k.c.c.k.e 7 2.y.y.p.p.                  ",
"                    y.p.y.p.u . 3 <.j ; ,.;.& X . o 6.b.v.b.b.b.b.5.6 y.y.p.y.                  ",
"                      p.p.y.> . j <.g 4 ,._ X X . O b.b.v.v.b.b.b.b.q t p.y.p.                  ",
"                        p.` R o./ +.~ ( >.( . . . % b.b.b.x.%.$.#.o.o...` 9.                    ",
"                          [ [ [ [ [ [ [ [ / 2 # . & n.&.@.[ [ [ [ o.[ [ ..                      ",
"                          o.o.[ o.[ o.[ [ o.[ U 1 d n V / [ [ [ o.[ o.[ o.                      ",
"                          [ [ o.[ o.[ o.o.[ o.[ ! R k k n ! [ o.[ o.[ o.[                       ",
"                          [ o.[ o.[ o.[ [ o.[ o.[ [ ! n k n ! [ o.[ o.[ [                       ",
"                          [ [ o.[ o.[ o.o.[ o.[ [ o.[ / n k V o.[ o.[ o.!                       ",
"                          [ o.[ o.[ [ o.[ o.[ o.o.[ o.[ ! k k D [ [ o.[ [                       ",
"                          o.[ o.[ o.o.[ o.[ o.[ [ o.[ o.! R k k R o.[ o.o.                      ",
"                            [ o.o.[ o.a a o.[ o.o.[ o.[ o.[ A k n [ o.[                         ",
"                            o.[ [ o.[ s a o.o.[ [ o.[ o.[ o.[ k k R [ o.                        ",
"                            [ o.o.o.[ o.o.[ o.[ o.[ o.[ o.[ o.F k A [ o.                        ",
"                            o.[ [ a a [ [ a s o.[ o.[ o.[ o.[ ! k k ! [                         ",
"                            [ o.o.a a o.o.a s [ o.[ o.[ [ o.[ o.n k R [                         ",
"                            o.[ o.[ o.[ o.[ o.[ [ o.[ o.o.[ o.[ F k A o.                        ",
"                            [ o.[ o.[ o.[ o.[ o.[ o.[ o.[ o.[ o.G k V [                         ",
"                            o.[ o.[ o.[ o.[ o.[ o.[ o.[ o.[ o.[ ! k k o.                        ",
"                            [ o.[ o.[ o.[ o.[ o.[ o.[ o.[ o.[ o.o.k k o.                        ",
"                            o.[ o.[ o.[ o.[ o.[ o.[ o.[ o.[ o.[ [ k k [                         ",
"                            o.[ [ o.[ o.[ o.[ o.[ o.[ o.o.[ o.[ ! k k [                         ",
"                            [ o.o.[ o.[ o.[ o.[ o.[ o.[ [ o.[ o.R k n o.                        ",
"                            [ o.[ o.[ o.[ o.[ o.[ o.[ o.o.[ o.[ G k A [                         ",
"                            o.[ o.[ o.[ o.[ o.[ o.[ o.[ [ o.[ o.A k F [                         ",
"                            o.[ [ o.[ o.[ o.[ o.[ o.[ o.[ o.o.[ k k !                           ",
"                              o.o.[ o.[ o.[ o.[ o.[ o.[ o.[ o.F k V o.                          ",
"                              [ [ o.[ o.[ o.[ o.[ o.[ o.[ o.[ n k G o.                          ",
"                              o.o.[ o.[ o.[ o.[ o.[ o.[ o.[ F k n / [                           ",
"                              [ [ o.[ o.[ o.[ o.o.[ o.[ [ R k k R o.[                           ",
"                              o.o.[ o.[ o.[ o.[ [ o.[ [ R k k G [ [ o.                          ",
"                              [ [ o.[ o.[ o.[ o.o.[ o.! k k Z o.[ o.o.                          ",
"                              o.o.[ o.[ o.[ o.[ [ o.G k k A [ o.o.[ [                           ",
"                              o.[ o.[ o.o.[ o.[ / A k k A [ o.[ [ o.[                           ",
"                                                                                                ",
"                                                                                                ",
"                                                                                                "
};
